<?xml version="1.0" encoding="utf-8"?>
<svg version="1.1" id="Layer_1" xmlns="http://www.w3.org/2000/svg" xmlns:xlink="http://www.w3.org/1999/xlink" x="0px" y="0px"
	 viewBox="0 0 872.4 157.5" style="enable-background:new 0 0 872.4 157.5;" xml:space="preserve">
<path d="M183.1,120.8c-16.8,0-24.1-12.6-24.1-27.7c0-15.7,5.2-31.6,22.9-31.6c11.7,0,19.8,7.5,19.9,19.4h15.1V51.7h-15.1v9.2
	l-0.2-0.2c-5.3-8-13.1-10.6-22.6-10.6c-25.2,0-37.6,17.6-37.6,41.7c0,22.9,13.4,40.5,41.1,40.5c15.6,0,34.2-6.9,34.6-28.9h-16
	c-0.1,9.7-8,17.5-17.7,17.5C183.3,120.8,183.2,120.8,183.1,120.8z M599.9,89.2v-0.2c10.7-1.3,16.1-7.5,16.1-18
	c0-18.9-16.9-19.3-31.2-19.3H547v11.5h9.9v56H547v11.5h37.2c12.4,0,34.4,0.7,34.4-23C618.5,97,610.1,89.5,599.9,89.2z M573.5,63.1
	h10c7.4,0,15.9,0.6,15.9,10.1c0,9.8-8.5,11.3-16.4,11.3h-9.5L573.5,63.1z M584.6,119.1h-11.1V95.4h11.2c8.4,0,17.1,0,17.1,11.3
	C601.8,117.4,594.9,119.1,584.6,119.1z M251.5,72.4c-17.7,0-30.1,11.1-30.1,29.9s12.4,29.9,30.1,29.9s30.2-11.1,30.2-29.9
	S269.3,72.4,251.5,72.4z M251.5,120.8c-10.2,0-13.5-9.5-13.5-18.4s3.3-18.5,13.5-18.5s13.5,9.5,13.5,18.5S261.8,120.8,251.5,120.8z
	 M104.7,36.3c-2.1-0.9-4.3-1.6-6.5-2.2c-3.3-0.9-6.6-1.6-10-2.2c-4.8-0.8-17.5-2.1-19.6-2.2c-0.7,0-0.3-0.8,0-1.2
	c0.7-1.1,1.7-2,2.4-3.1c1.6-2.1,2.8-4.5,3.4-7.1c0.7-2.9,0.9-5.9,0.6-8.9c-0.1-1.1-0.3-2.2-0.6-3.2c-0.1-0.6-0.4-1.2-0.9-1.5
	c-0.5-0.1-1.1-0.1-1.6,0.1c-1,0.3-2,0.7-2.9,1.2c-5.7,3-11.2,7.1-14.3,12.5c-1.3,2.1-2.1,4.5-2.4,7c-0.1,0.7-0.1,1.4-0.1,2.2
	c0,0.5-0.1,1-0.3,1.4C51.5,29.7,51,30,50.3,30c-1.2,0.1-8.4,0.9-10.8,1.3c-5.3,0.8-10.6,2.1-15.8,3.8c-1.9,0.6-3.8,1.4-5.6,2.4
	c-0.1,0-0.2,0.1-0.3,0.2c-0.8,0.4-1.6,0.9-2.4,1.4c-0.1,0-0.2,0.1-0.2,0.2c-0.8,0.5-1.6,1.1-2.3,1.8c-0.5,0.4-1,0.9-1.5,1.4
	c-0.2,0.2-0.4,0.3-0.5,0.5s-0.5,0.4-0.7,0.7c-0.9,1.1-1.8,2.3-2.4,3.6c-0.1,0.1-0.1,0.2-0.2,0.3c-0.3,0.5-0.5,1.1-0.7,1.6
	c-0.1,0.3-0.3,0.7-0.4,1c-0.1,0.2-0.1,0.4-0.2,0.6c-0.2,0.7-0.4,1.3-0.6,2c-0.4,1.6-0.5,3.3-0.4,4.9c0,0.6,0.1,1.1,0.1,1.7
	c0,0.4,0.1,0.7,0.1,1.1s0.1,0.7,0.2,1c0.5,2.6,1.3,5.1,2.5,7.4c1.8,4.2,4.3,8,7.4,11.3c0.3,0.5,0.5,1.1,0.5,1.7
	c0.4,5.3,1.5,10.5,3.2,15.5c6,18.3,18.7,31.9,26.5,38.1c0,0,4.2,3.4,5.8,4.9c2.3,2,6.5,4.8,6.5,4.8c1.3,1,2.9,1.5,4.6,1.4
	c2.6,0,4.6-1.3,6.5-2.6c2.4-1.6,11.9-9.8,11.9-9.8c10.1-9,26.3-26.2,28.2-52.3c0-0.6,0.2-1.3,0.5-1.8c3.1-3.3,5.5-7.1,7.3-11.3
	c0,0,4.2-8.2,2.5-16S112.4,39.5,104.7,36.3z M60.4,25.9c0.1-1.3,0.4-2.5,0.9-3.6c1.1-2.9,2.8-5.5,5-7.7c0.7-0.7,1.4-1.3,2.2-1.8
	c0.4-0.3,0.8-0.5,1.3-0.5c0.8,0.2-0.7,4-0.8,4.4c-0.9,2.6-2.3,5.1-4,7.2c-0.8,1-1.7,1.9-2.7,2.7c-0.3,0.2-1.1,1-1.5,0.8
	S60.3,26.2,60.4,25.9z M106.6,62.6c-0.2,0.4-0.7,1.4-1,1.8c0,0-6.7,10-5.7,15.8c0.7,3.8,2.8,9-2.3,21.1c-2.8,6.7-6.3,14.4-16.9,26.6
	c-1.7,1.8-3.5,3.5-5.4,5.1c0,0-9,7.4-12,7.4c-2.5-0.2-4.9-1.3-6.7-3.2c-1.4-1.3-4.7-4.8-5-5.2c-16.1-20.2-16.8-36.7-13.7-48.3
	c1.1-3.6,3.4-6.6,6.5-8.6c6-4.1,13.8-5.3,14.9-5.4c3.1-0.2,4.6-0.4,7.7-0.5c2.4,0,4.8-0.1,7.1,0c1.4,0,2.7,0.1,4.1,0.2
	c1.9,0.2,3.7,0.4,5.5,0.7c1.1,0.2,2.3,0.6,3.4,0.7c0.8,0.1,1.8,0,2-1c0-0.2,0-0.3,0-0.5c-0.3-1.1-2.1-2.7-8.8-4.4
	c-1.5-0.3-3.1-0.6-4.6-0.8c-1-0.1-2-0.2-3-0.2l-1.9-0.1h-0.3h-1.9h-0.2c-0.8,0-1.5,0-2.2,0h-2.1c-11.2,0-21.2,1.2-21.2,1.2
	s-17.9,2.6-17.9-10.6c0-12.9,16.4-15.9,27.1-17.4c0.1,0,0.1,0,0.2,0h0.1l0,0h0.2c0.5-0.1,1.1-0.2,1.6-0.2c0.3,0,0.7-0.1,1-0.1
	c0.8-0.1,1.5-0.2,2.3-0.2c1.8-0.1,3.8-0.2,5.7-0.2h0.9c4.1,0,8.3,0.3,12.4,0.8c3,0.3,5.9,0.9,8.9,1.6
	C99.5,41.7,113.1,48.2,106.6,62.6L106.6,62.6z M542.7,94.1c-2.4-13.9-13.4-21.7-27-21.7c-17.9,0-29.9,11.4-29.9,29.2
	c0,18.8,10.5,30.6,30.3,30.6c12.9,0,24-5.5,26.7-19.2h-15.1c-1.5,6-5.5,8.3-11.1,8.3c-8.9,0-14.1-5.6-14.1-14.5h41
	C543.6,102.6,543.3,98.3,542.7,94.1z M502.5,96.6c0-7.6,4.5-13.4,12.5-13.4c8.3,0,12.4,5.3,12.4,13.4H502.5z M859.2,119.2V49.5
	h-23.8v10.8h7.8v21.6H843c-2.7-5.4-8-10-17.5-10c-14.7,0-25.3,10-25.3,30.8c0,15.2,8,29.1,24.4,29.1c10,0,14.9-3.1,20-11.1h0.2v9.4
	h22.3v-10.9L859.2,119.2z M828.7,120.2c-6.9,0-12-6.3-12-18.5c0-9.3,3.2-18.4,13.4-18.4c9.9,0,14,8.3,14,17.6
	C844.1,112.9,840.7,120.3,828.7,120.2L828.7,120.2z M306,50h-23.9v10.9h7.9v58.8h-7.9v10.9h31.7v-10.9H306V50z M739.3,97.1
	c0-17.1-5.9-24.7-24.1-24.7c-13.3,0-26.5,2.7-27.5,18.8h15.1c0.5-6.5,4.3-9.2,10.6-9.2c5.9,0,10.9,2,10.9,8.7v4.4h-5.7
	c-14.1,0-32.7,0.5-32.7,19.1c0,12.1,9.2,18.1,19.7,18.1c8.6,0,13.8-2.3,18.7-9.9h0.2v8.2h22.1v-10.9h-7.2L739.3,97.1z M709.5,121.3
	c-4.9,0-8.6-2.4-8.6-7.7c0-7.6,7.4-8.9,15.6-8.9h7.7C724.5,114.4,719,121.4,709.5,121.3L709.5,121.3z M461.4,82.8h-0.2
	c-3.9-5.9-9.4-10.1-18.5-10.1c-18.2,0-25.8,13-25.8,29.7c0,14.4,8.9,27.4,24.1,27.4c9.8,0,13.6-2.4,19-8.2v6.4c0,7.1-5.1,14-12.2,14
	c-5.2,0-10-1-10.5-7.9h-17.5c0.9,13.4,9.6,18.7,26.3,18.7c22.7,0,29.9-13,29.9-27.4V85h7.9V74.1h-22.4V82.8z M447.2,118.2
	c-9,0-13.6-7.8-13.6-16.5c0-8.9,3.8-17.6,13.9-17.6s13.5,8.3,13.5,17C460.9,110.3,457.1,118.2,447.2,118.2L447.2,118.2z M651.4,72.4
	c-17.7,0-30.1,11.1-30.1,29.9s12.4,29.9,30.1,29.9s30.2-11.1,30.2-29.9S669.1,72.4,651.4,72.4z M651.4,120.8
	c-10.2,0-13.5-9.5-13.5-18.4s3.2-18.5,13.5-18.5s13.5,9.5,13.5,18.5S661.7,120.8,651.4,120.8z M775.5,85.1h-0.2v-11h-22.8v10.8h7.8
	v34.7h-7.8v10.9H786v-10.9h-9.7v-16.4c0.6-9.8,5.6-17.6,16.2-17.6c2.4-0.1,4.9,0.1,7.2,0.6V73.1c-2.3-0.5-4.6-0.7-6.9-0.7
	C784.5,72.4,778.8,77.8,775.5,85.1z M410.4,94.1c-2.4-13.9-13.4-21.7-27-21.7c-17.8,0-29.9,11.4-29.9,29.2
	c0,18.8,10.5,30.6,30.3,30.6c12.9,0,24-5.5,26.7-19.2h-15.1c-1.6,6-5.5,8.3-11.1,8.3c-8.9,0-14.1-5.6-14.1-14.5h41
	C411.2,102.6,410.9,98.3,410.4,94.1z M370.1,96.6c0-7.6,4.5-13.4,12.5-13.4c8.3,0,12.4,5.3,12.4,13.4H370.1z M343.6,50h-23.9v10.9
	h7.9v58.8h-7.9v10.9h31.7v-10.9h-7.9V50z"/>
</svg>
