<?xml version="1.0" encoding="utf-8"?>
<!-- Generator: Adobe Illustrator 19.0.0, SVG Export Plug-In . SVG Version: 6.00 Build 0)  -->
<!DOCTYPE svg PUBLIC "-//W3C//DTD SVG 1.1//EN" "http://www.w3.org/Graphics/SVG/1.1/DTD/svg11.dtd">
<svg version="1.1" id="Layer_1" xmlns="http://www.w3.org/2000/svg" xmlns:xlink="http://www.w3.org/1999/xlink" x="0px" y="0px"
	 viewBox="-128 246 535 121" style="enable-background:new -128 246 535 121;" xml:space="preserve">
<style type="text/css">
	.st0{display:none;}
	.st1{fill:#C00000;}
	.st2{fill:#FCF600;}
	.st3{fill:#17375E;}
	.st4{fill:#7F7F7F;}
</style>
<g id="Guia" class="st0">
	
		<image style="display:inline;overflow:visible;enable-background:new    ;" width="1115" height="240" xlink:href="C14555A9F029E5C2.png"  transform="matrix(0.4788 0 0 0.4752 -368.4389 728.6594)">
	</image>
</g>
<g id="Logo">
	<g>
		<rect x="-97.5" y="267.2" class="st1" width="27.7" height="78.3"/>
		<rect x="-82.1" y="275.8" class="st2" width="27.7" height="78.4"/>
		<rect x="-66.6" y="284.4" class="st3" width="27.7" height="78.4"/>
		<rect x="-28" y="328.7" class="st3" width="430" height="0.7"/>
		<g>
			<path class="st3" d="M-10.3,291.1l-3.8,4c-1.3-2.2-2.7-3.3-4.1-3.3c-0.7,0-1.2,0.2-1.6,0.6s-0.6,0.9-0.6,1.5
				c0,0.5,0.2,1.1,0.5,1.5c0.4,0.6,1.7,2,3.8,4.2c2,2,3.1,3.2,3.6,3.7c1,1.3,1.8,2.5,2.2,3.6c0.4,1.2,0.7,2.4,0.7,3.8
				c0,2.7-0.8,4.8-2.3,6.6c-1.5,1.7-3.5,2.6-6,2.6c-1.9,0-3.6-0.6-5-1.7s-2.6-2.9-3.7-5.3l4.3-3.1c1.3,2.9,2.8,4.3,4.5,4.3
				c0.9,0,1.6-0.3,2.2-0.9s0.9-1.3,0.9-2.1c0-0.7-0.2-1.5-0.7-2.2s-1.4-1.9-3-3.4c-2.9-2.9-4.8-5.1-5.7-6.6
				c-0.9-1.6-1.3-3.1-1.3-4.7c0-2.2,0.7-4.2,2.1-5.8c1.4-1.6,3.2-2.4,5.3-2.4c1.3,0,2.6,0.4,3.8,1.1
				C-13,287.8-11.7,289.1-10.3,291.1z"/>
			<path class="st3" d="M3.3,286.7h5.2L18.8,319h-5.3l-2.1-6.7h-11l-2.2,6.7h-5.3L3.3,286.7z M5.9,295.3l-3.6,11.1h7.2L5.9,295.3z"
				/>
			<path class="st3" d="M21.4,286.7h5.1V319h-5.1V286.7z"/>
			<path class="st3" d="M31.2,286.7h4.9L47.6,308v-21.3h5.1V319h-4.9l-11.5-21.2V319h-5.1C31.2,319,31.2,286.7,31.2,286.7z"/>
			<path class="st3" d="M55.3,286.7h14.9v6.1h-4.9v26.3H60v-26.3h-4.8L55.3,286.7L55.3,286.7z"/>
			<path class="st3" d="M89.6,286.7h14.9v6.1h-4.9v26.3h-5.2v-26.3h-4.8V286.7z"/>
			<path class="st3" d="M108.3,286.7h4.9v12.2h8.5v-12.2h4.9V319h-4.9v-14.1h-8.5v14.2h-4.9V286.7z"/>
			<path class="st3" d="M305.8,286.7h4.9v12.2h8.5v-12.2h4.9V319h-4.9v-14.1h-8.5v14.2h-4.9V286.7z"/>
			<path class="st3" d="M143.8,285.9c3.6,0,6.6,1.7,9.2,5c2.6,3.3,3.9,7.3,3.9,12.1c0,4.7-1.3,8.7-3.8,12s-5.6,4.9-9.2,4.9
				c-3.8,0-6.9-1.7-9.4-5c-2.5-3.4-3.8-7.3-3.8-12c0-3.1,0.6-5.9,1.8-8.5c1.2-2.6,2.8-4.6,4.8-6.2
				C139.3,286.7,141.5,285.9,143.8,285.9z M143.8,291.9c-2.3,0-4.3,1-5.9,3.1c-1.6,2.1-2.4,4.7-2.4,7.9c0,3.6,1,6.4,3,8.5
				c1.6,1.6,3.3,2.4,5.3,2.4c2.3,0,4.2-1.1,5.8-3.2s2.4-4.7,2.4-7.8s-0.8-5.7-2.4-7.8C148.1,293,146.1,291.9,143.8,291.9z"/>
			<path class="st3" d="M371.3,285.9c3.6,0,6.6,1.7,9.2,5s3.9,7.3,3.9,12.1c0,4.7-1.3,8.7-3.8,12s-5.6,4.9-9.2,4.9
				c-3.8,0-6.9-1.7-9.4-5c-2.5-3.4-3.8-7.3-3.8-12c0-3.1,0.6-5.9,1.8-8.5c1.2-2.6,2.8-4.6,4.8-6.2
				C366.8,286.7,369,285.9,371.3,285.9z M371.3,291.9c-2.3,0-4.3,1-5.9,3.1s-2.4,4.7-2.4,7.9c0,3.6,1,6.4,3,8.5
				c1.6,1.6,3.3,2.4,5.4,2.4c2.3,0,4.2-1.1,5.8-3.2c1.6-2.1,2.4-4.7,2.4-7.8s-0.8-5.7-2.4-7.8C375.6,293,373.6,291.9,371.3,291.9z"
				/>
			<path class="st3" d="M341.6,285.9c3.6,0,6.6,1.7,9.2,5s3.9,7.3,3.9,12.1c0,4.7-1.3,8.7-3.8,12s-5.6,4.9-9.2,4.9
				c-3.8,0-6.9-1.7-9.4-5c-2.5-3.4-3.8-7.3-3.8-12c0-3.1,0.6-5.9,1.8-8.5c1.2-2.6,2.8-4.6,4.8-6.2
				C337,286.7,339.2,285.9,341.6,285.9z M341.5,291.9c-2.3,0-4.3,1-5.9,3.1s-2.4,4.7-2.4,7.9c0,3.6,1,6.4,3,8.5
				c1.6,1.6,3.3,2.4,5.4,2.4c2.3,0,4.2-1.1,5.8-3.2c1.6-2.1,2.4-4.7,2.4-7.8s-0.8-5.7-2.4-7.8C345.8,293,343.9,291.9,341.5,291.9z"
				/>
			<path class="st3" d="M163.6,286.7h4.9l6.1,22.5l6.1-22.5h4.9L190,319h-4.8l-2.8-20.4l-5.6,20.4h-4.4l-5.5-20.4L164,319h-5
				L163.6,286.7z"/>
			<path class="st3" d="M201.6,286.7h5.2l10.3,32.3h-5.3l-2.1-6.7h-11l-2.2,6.7h-5.3L201.6,286.7z M204.2,295.3l-3.6,11.1h7.2
				L204.2,295.3z"/>
			<path class="st3" d="M234.2,291.1l-3.8,4c-1.3-2.2-2.7-3.3-4.1-3.3c-0.7,0-1.2,0.2-1.6,0.6s-0.6,0.9-0.6,1.5
				c0,0.5,0.2,1.1,0.5,1.5c0.4,0.6,1.7,2,3.8,4.2c2,2,3.1,3.2,3.6,3.7c1,1.3,1.8,2.5,2.2,3.6c0.4,1.2,0.7,2.4,0.7,3.8
				c0,2.7-0.8,4.8-2.3,6.6c-1.5,1.7-3.5,2.6-6,2.6c-1.9,0-3.6-0.6-5-1.7s-2.6-2.9-3.7-5.3l4.3-3.1c1.3,2.9,2.8,4.3,4.5,4.3
				c0.9,0,1.6-0.3,2.2-0.9s0.9-1.3,0.9-2.1c0-0.7-0.2-1.5-0.7-2.2s-1.4-1.9-3-3.4c-2.9-2.9-4.8-5.1-5.7-6.6
				c-0.9-1.6-1.3-3.1-1.3-4.7c0-2.2,0.7-4.2,2.1-5.8c1.4-1.6,3.2-2.4,5.3-2.4c1.3,0,2.6,0.4,3.8,1.1
				C231.5,287.8,232.8,289.1,234.2,291.1z"/>
			<path class="st3" d="M273.1,291.1l-3.8,4c-1.3-2.2-2.7-3.3-4.1-3.3c-0.7,0-1.2,0.2-1.6,0.6s-0.6,0.9-0.6,1.5
				c0,0.5,0.2,1.1,0.5,1.5c0.4,0.6,1.7,2,3.8,4.2c2,2,3.1,3.2,3.6,3.7c1,1.3,1.8,2.5,2.2,3.6c0.4,1.2,0.7,2.4,0.7,3.8
				c0,2.7-0.8,4.8-2.3,6.6c-1.5,1.7-3.5,2.6-6,2.6c-1.9,0-3.6-0.6-5-1.7s-2.6-2.9-3.7-5.3l4.3-3.1c1.3,2.9,2.8,4.3,4.5,4.3
				c0.9,0,1.6-0.3,2.2-0.9s0.9-1.3,0.9-2.1c0-0.7-0.2-1.5-0.7-2.2s-1.4-1.9-3-3.4c-2.9-2.9-4.8-5.1-5.7-6.6
				c-0.9-1.6-1.3-3.1-1.3-4.7c0-2.2,0.7-4.2,2.1-5.8c1.4-1.6,3.2-2.4,5.3-2.4c1.3,0,2.6,0.4,3.8,1.1
				C270.4,287.8,271.7,289.1,273.1,291.1z"/>
			<path class="st3" d="M301.3,292.4l-3.4,4.1c-2.3-3.1-5-4.6-7.9-4.6c-2.5,0-4.6,1.1-6.3,3.2c-1.7,2.1-2.5,4.7-2.5,7.8
				c0,2.2,0.4,4.1,1.1,5.7c0.8,1.7,1.8,3,3.2,3.9c1.4,1,2.9,1.4,4.6,1.4c1.4,0,2.7-0.3,3.9-1c1.2-0.7,2.5-1.9,3.9-3.6l3.3,4.4
				c-1.9,2.3-3.7,3.9-5.4,4.8c-1.7,0.9-3.6,1.4-5.8,1.4c-4,0-7.3-1.6-9.9-4.8c-2.6-3.2-3.8-7.3-3.8-12.3c0-3.2,0.6-6.1,1.8-8.6
				c1.2-2.5,2.8-4.5,5-6s4.5-2.3,7-2.3c2.1,0,4.2,0.6,6.2,1.7C298.2,288.7,299.9,290.3,301.3,292.4z"/>
			<path class="st3" d="M388,286.7h5.1v26.5h7.5v5.9H388V286.7z"/>
		</g>
		<g>
			<g>
				<path class="st4" d="M314,335.7h2.8v18.8h10.8v2H314V335.7z"/>
				<path class="st4" d="M331.7,335.7h2.8v20.8h-2.8V335.7z"/>
				<path class="st4" d="M341,335.7h14v2h-11.3v6.5H355v2h-11.3v10.2H341V335.7z"/>
				<path class="st4" d="M360,335.7h16.1v2h-13.3v6.5H376v2h-13.2v8.2H376v2h-16V335.7z"/>
			</g>
			<g>
				<path class="st4" d="M-2.2,335.1H14v2H0.6v6.5h13.3v2H0.6v8.2h13.3v2H-2.2C-2.2,355.8-2.2,335.1-2.2,335.1z"/>
				<path class="st4" d="M18.9,356v-20.9h5.9c4.2,0,7.3,0.3,9.2,0.8c2.7,0.7,4.9,1.9,6.4,3.7c1.5,1.7,2.3,3.8,2.3,6.2
					c0,2.1-0.6,3.9-1.8,5.5c-1.2,1.6-2.8,2.8-4.8,3.5c-2,0.8-4.7,1.1-8.2,1.1L18.9,356C18.9,355.9,18.9,356,18.9,356z M21.6,354h3.3
					c3.9,0,6.6-0.2,8.1-0.5c2.1-0.5,3.8-1.4,5-2.8c1.2-1.3,1.8-2.9,1.8-4.9s-0.7-3.7-2-5.2c-1.3-1.4-3.2-2.4-5.5-2.9
					c-1.8-0.4-4.7-0.6-8.7-0.6h-2L21.6,354L21.6,354z"/>
				<path class="st4" d="M48.3,335.1h2.8v12.6c0,1.5,0,2.4,0.1,2.8c0.1,0.8,0.5,1.5,1,2.1s1.3,1,2.4,1.4c1.1,0.4,2.1,0.6,3.2,0.6
					c0.9,0,1.8-0.1,2.7-0.4s1.6-0.7,2.2-1.2c0.6-0.5,1-1.1,1.3-1.9c0.2-0.5,0.3-1.6,0.3-3.3v-12.7h2.8v12.6c0,1.9-0.2,3.4-0.7,4.5
					s-1.5,2.1-3,3c-1.5,0.8-3.3,1.3-5.4,1.3c-2.3,0-4.2-0.4-5.9-1.2c-1.6-0.8-2.7-1.9-3.3-3.2c-0.3-0.8-0.5-2.3-0.5-4.4L48.3,335.1
					L48.3,335.1z"/>
				<path class="st4" d="M100.3,339l-2.2,1.3c-1.2-1.2-2.7-2.1-4.4-2.7c-1.7-0.6-3.6-0.9-5.7-0.9c-2.3,0-4.3,0.4-6.3,1.2
					c-1.9,0.8-3.4,1.9-4.5,3.2c-1.1,1.3-1.6,2.9-1.6,4.5c0,2.5,1.2,4.7,3.5,6.4c2.4,1.7,5.3,2.5,8.9,2.5c4,0,7.3-1.1,9.9-3.4
					l2.2,1.2c-1.4,1.3-3.2,2.3-5.3,3.1c-2.1,0.7-4.5,1.1-7.1,1.1c-4.9,0-8.8-1.2-11.7-3.6c-2.4-2-3.6-4.5-3.6-7.4
					c0-3,1.5-5.6,4.4-7.7s6.5-3.1,10.9-3.1c2.6,0,5,0.4,7.1,1.2C97.2,336.5,98.9,337.6,100.3,339z"/>
				<path class="st4" d="M117.5,335.1l13.2,20.8h-3.1l-4.4-6.9H111l-4.4,6.9h-3.2l13.4-20.8H117.5z M117.1,339.6l-4.8,7.5h9.7
					L117.1,339.6z"/>
				<path class="st4" d="M129.1,337.2v-2h15.5v2h-6.3V356h-2.9v-18.8H129.1z"/>
				<path class="st4" d="M148.2,335.1h2.8v20.8h-2.8V335.1z"/>
				<path class="st4" d="M171,334.6c4.3,0,7.9,1.1,10.8,3.2c2.9,2.1,4.3,4.7,4.3,7.8c0,3-1.4,5.6-4.3,7.8c-2.9,2.1-6.4,3.2-10.5,3.2
					c-4.2,0-7.7-1.1-10.6-3.2s-4.3-4.7-4.3-7.7c0-2,0.7-3.9,2-5.6s3.1-3,5.4-4C165.9,335.1,168.4,334.6,171,334.6z M171.1,336.6
					c-2.1,0-4.1,0.4-5.9,1.2c-1.9,0.8-3.3,1.9-4.4,3.2c-1.1,1.4-1.6,2.9-1.6,4.5c0,2.5,1.2,4.6,3.5,6.3c2.3,1.7,5.1,2.6,8.4,2.6
					c2.2,0,4.2-0.4,6.1-1.2c1.9-0.8,3.3-1.9,4.4-3.2c1-1.4,1.6-2.9,1.6-4.5c0-1.7-0.5-3.1-1.6-4.5c-1-1.3-2.5-2.4-4.4-3.2
					C175.3,337,173.3,336.6,171.1,336.6z"/>
				<path class="st4" d="M191.8,356v-20.9h0.6l18.8,16v-16h2.8v20.8h-0.6l-18.7-15.7V356L191.8,356L191.8,356z"/>
			</g>
			<g>
				<path class="st4" d="M228.4,335.1h14v2h-11.2v6.5h11.2v2h-11.2v10.2h-2.8V335.1z"/>
				<path class="st4" d="M260.7,334.6c4.2,0,7.8,1.1,10.6,3.2c2.9,2.1,4.3,4.7,4.3,7.8c0,3-1.4,5.6-4.3,7.8
					c-2.8,2.1-6.3,3.2-10.4,3.2c-4.2,0-7.7-1.1-10.5-3.2c-2.9-2.1-4.3-4.7-4.3-7.7c0-2,0.7-3.9,2-5.6s3.1-3,5.3-4
					S258,334.6,260.7,334.6z M260.8,336.6c-2.1,0-4,0.4-5.9,1.2c-1.9,0.8-3.3,1.9-4.3,3.2c-1,1.4-1.6,2.9-1.6,4.5
					c0,2.5,1.2,4.6,3.5,6.3c2.3,1.7,5.1,2.6,8.3,2.6c2.2,0,4.2-0.4,6-1.2c1.8-0.8,3.3-1.9,4.3-3.2c1-1.4,1.6-2.9,1.6-4.5
					c0-1.7-0.5-3.1-1.6-4.5c-1-1.3-2.5-2.4-4.4-3.2C264.9,337,262.9,336.6,260.8,336.6z"/>
				<path class="st4" d="M281.4,335.1h5.6c3.1,0,5.2,0.1,6.3,0.3c1.7,0.3,3,0.9,4.1,1.8c1,0.9,1.6,2.1,1.6,3.4c0,1.1-0.4,2.1-1.1,3
					s-1.7,1.5-3.1,1.9c-1.3,0.4-3.2,0.7-5.5,0.7l10.1,9.7h-3.5l-10.1-9.7h-1.6v9.7h-2.8V335.1z M284.2,337.2v7.1h4.8
					c1.9,0,3.2-0.1,4.1-0.4s1.6-0.7,2.1-1.3s0.8-1.2,0.8-1.9c0-0.7-0.3-1.3-0.8-1.9s-1.2-1-2-1.2s-2.2-0.4-4.1-0.4
					C289.1,337.2,284.2,337.2,284.2,337.2z"/>
			</g>
		</g>
		<path class="st3" d="M-28.2,260.8H-34l-2.6-6.7l-2.2,5.6c-2-2.8-5.3-5.2-9.6-6.9c-13.2-5.2-31.8-2.5-49.7,7.2
			c-17,9.1-26.9,23.6-24.6,35.9c1.6,8.7,9.3,14.6,21.2,16.1l0.2-1.4c-11.4-1.5-18.4-6.8-20-15c-2.1-11.5,7.7-25.7,23.9-34.4
			c17.6-9.4,35.7-12.1,48.6-7.1c4.1,1.6,7.3,4,9.1,6.6H-45l5.2,4.4l-2,6.3l5.2-4.2l5.2,4.2l-1.8-6.2L-28.2,260.8z"/>
	</g>
</g>
</svg>
